<?xml version="1.0" encoding="UTF-8" standalone="no"?>
<!-- Created with Inkscape (http://www.inkscape.org/) -->

<svg
   width="33.348282mm"
   height="76.271477mm"
   viewBox="0 0 33.348282 76.271477"
   version="1.1"
   id="svg1"
   xmlns:inkscape="http://www.inkscape.org/namespaces/inkscape"
   xmlns:sodipodi="http://sodipodi.sourceforge.net/DTD/sodipodi-0.dtd"
   xmlns="http://www.w3.org/2000/svg"
   xmlns:svg="http://www.w3.org/2000/svg">
  <sodipodi:namedview
     id="namedview1"
     pagecolor="#ffffff"
     bordercolor="#000000"
     borderopacity="0.25"
     inkscape:showpageshadow="2"
     inkscape:pageopacity="0.0"
     inkscape:pagecheckerboard="0"
     inkscape:deskcolor="#d1d1d1"
     inkscape:document-units="mm" />
  <defs
     id="defs1" />
  <g
     inkscape:label="Layer 1"
     inkscape:groupmode="layer"
     id="layer1"
     transform="translate(-39.042985,-64.273787)">
    <path
       style="fill:none;stroke:#000000;stroke-width:0.264583"
       d="m 45.919149,71.617022 c -1.438423,19.224788 -2.480347,38.484818 -3.79149,57.714888 -0.180602,2.64885 -1.049211,17.90028 -3.79149,20.64256 -0.09929,0.0993 -0.28085,0 -0.421275,0 -2.061696,0 -1.980618,0.34968 -2.527659,-3.37022 -0.532779,-3.62288 -0.430636,-7.31458 -0.842555,-10.95319 -0.431155,-3.80854 -1.252337,-7.56611 -1.685105,-11.37447 -0.270008,-2.37606 -0.175207,-4.78303 -0.421278,-7.1617 -0.751075,-7.26039 -2.189363,-14.08933 -1.685107,-21.485103 0.814776,-11.95003 2.147136,-12.380029 5.476597,-25.697873 0.520991,-2.083961 0.842552,-4.212767 1.26383,-6.319149 0.352689,-1.763451 -3.111156,-3.726657 1.26383,-4.212765 8.47612,-0.941792 13.702453,-1.005454 21.906383,2.106382 1.71191,0.649346 3.815228,1.311307 4.634042,2.948938 1.888998,3.777996 2.29852,8.817099 2.948935,12.638296 0.596577,3.50488 1.100621,7.024997 1.685107,10.531914 0.03136,0.188145 0.595821,2.250765 0.421278,2.948937 -1.876563,7.506248 -3.177482,16.521203 -11.374469,19.800003 -3.93558,1.57423 -8.491538,-0.0975 -12.217022,-0.84256 -0.146502,-0.0293 -1.901066,-0.63723 -2.106382,-0.84255 -0.0993,-0.0993 0.07789,-0.30443 0,-0.42128 -0.438407,-0.65761 -1.884392,-1.89953 -1.26383,-2.10638 2.103263,-0.70109 4.366829,2.53419 5.055319,3.37021 2.874701,3.49071 5.495872,7.19062 8.004255,10.95319 1.429946,2.14492 2.487811,4.51651 3.791489,6.74043 1.084012,1.8492 2.411609,3.55939 3.370213,5.4766 0.188401,0.3768 -0.133218,0.86417 0,1.26383 0.496712,1.49013 2.863492,3.89532 3.791489,5.05532 0.542774,0.67846 1.649259,2.94893 2.52766,2.94893"
       id="path1" />
    <path
       style="fill:none;stroke:#000000;stroke-width:0.264583"
       d="m 54.34468,86.3617 c -2.948937,-2.387232 -5.897872,-4.774467 -8.846809,-7.161702 -0.842552,-0.421275 -1.743866,-0.741299 -2.52766,-1.26383 -0.660953,-0.440634 -1.024151,-1.24447 -1.685104,-1.685104 -0.863034,-0.575358 -1.623047,-0.359217 -2.106385,-0.842555 -0.04628,-0.04628 0.405781,-0.827054 0.421277,-0.842553 0.194741,-0.194741 1.009476,0.127177 1.26383,0 1.920412,-0.960204 4.154932,-2.40788 6.31915,-2.948934 0.96331,-0.24083 1.999887,-0.129263 2.948934,-0.421278 0.900348,-0.277029 1.65812,-0.90152 2.52766,-1.26383 3.102565,-1.292736 2.721748,-0.981186 5.476597,-2.948937 0.284507,-0.203219 1.491644,-0.649089 1.685105,-0.842553 0.09929,-0.09929 -0.0993,-0.321979 0,-0.421277 0.198594,-0.198591 0.591354,0.1256 0.842555,0 0.614397,-0.307197 0.673928,-0.673926 0.842552,-0.842552 0.198591,-0.198591 0.643962,0.19859 0.842553,0 0.0993,-0.0993 -0.0993,-0.32198 0,-0.421275 0.06565,-0.06565 1.619453,-0.06565 1.685107,0 0.27481,0.274809 0.587812,10.048943 0.842553,11.795744 0.699635,4.797493 1.753449,9.537377 2.527659,14.323403 0.770631,4.763892 1.267728,9.571013 2.106383,14.323403 2.450179,13.88435 1.347999,0.0831 2.527659,16.00851 0.209582,2.82935 0.51094,6.89272 -0.421274,9.68936 -0.305462,0.91639 -1.005549,2.1741 -1.26383,2.94894 -0.133221,0.39966 0.297886,0.96594 0,1.26383 -1.478876,1.47887 -3.932415,3.18673 -5.897872,3.79149 -1.106774,0.34054 -2.261071,0.50981 -3.370215,0.84255 -0.762484,-0.25391 -0.7835,0.68245 -1.26383,0.84256 -0.586785,0.19559 -3.148809,0.24293 -3.370212,-0.42128 -1.762276,-5.28683 0.581485,-11.14308 2.52766,-16.00851 0.34586,-0.86466 -0.836171,-0.006 0.421277,-1.26383 0.0993,-0.0993 0.321979,0.0993 0.421275,0 0.314002,-0.314 0.205621,-0.87565 0.421277,-1.26383 0.54982,-0.98968 1.203042,-1.92455 1.685108,-2.94894 1.724684,-2.07026 1.499497,-4.84833 2.52766,-7.1617 0.161311,-0.36295 0.638201,-0.50197 0.842552,-0.84255 1.131014,-1.88503 -0.274444,-5.34898 0.421275,-6.74043 0.362146,-0.72429 1.032663,-0.76043 1.26383,-1.68511 0.06812,-0.27246 0,-0.5617 0,-0.84255 0.421277,-0.70213 0.931278,-1.358139 1.26383,-2.106381 0.235151,-0.529087 0.193201,-1.152932 0.421277,-1.685107 0.322546,-0.75261 0.68484,-1.527392 1.26383,-2.106383 0.0993,-0.0993 0.32198,0.0993 0.421278,0 0.198591,-0.19859 -0.125601,-0.591351 0,-0.842552 1.024765,-2.049534 1.428342,-0.220628 0,-3.791492"
       id="path2" />
  </g>
</svg>
