<?xml version="1.0" encoding="UTF-8" standalone="no"?>
<svg
   viewBox="0 0 22.000002 22"
   version="1.1"
   id="svg2"
   sodipodi:docname="logoInstaGraySmall-toUseHELENAreformed.svg"
   width="22.000002"
   height="22"
   xmlns:inkscape="http://www.inkscape.org/namespaces/inkscape"
   xmlns:sodipodi="http://sodipodi.sourceforge.net/DTD/sodipodi-0.dtd"
   xmlns="http://www.w3.org/2000/svg"
   xmlns:svg="http://www.w3.org/2000/svg">
  <sodipodi:namedview
     id="namedview2"
     pagecolor="#ffffff"
     bordercolor="#000000"
     borderopacity="0.25"
     inkscape:showpageshadow="2"
     inkscape:pageopacity="0.0"
     inkscape:pagecheckerboard="0"
     inkscape:deskcolor="#d1d1d1" />
  <defs
     id="defs1">
    <style
       id="style1">.cls-1{fill:gray;}</style>
  </defs>
  <g
     id="Ebene_2"
     data-name="Ebene 2"
     transform="matrix(1.0017075,0,0,1.0007961,-0.02003415,-0.02001592)">
    <g
       id="svg1">
      <path
         id="path1"
         class="cls-1"
         d="M 11,5.36 A 5.64,5.64 0 1 0 16.65,11 5.63,5.63 0 0 0 11,5.36 Z m 0,9.31 A 3.67,3.67 0 1 1 14.68,11 3.68,3.68 0 0 1 11,14.67 Z M 18.2,5.13 A 1.32,1.32 0 1 1 16.88,3.81 1.31,1.31 0 0 1 18.2,5.13 Z m 3.73,1.33 A 6.51,6.51 0 0 0 20.16,1.85 6.59,6.59 0 0 0 15.55,0.08 C 13.73,0 8.28,0 6.47,0.08 A 6.51,6.51 0 0 0 1.86,1.85 6.51,6.51 0 0 0 0.08,6.46 C 0,8.28 0,13.72 0.08,15.54 a 6.47,6.47 0 0 0 1.78,4.61 6.58,6.58 0 0 0 4.61,1.77 c 1.81,0.11 7.26,0.11 9.08,0 a 6.51,6.51 0 0 0 4.61,-1.77 6.55,6.55 0 0 0 1.77,-4.61 C 22,13.72 22,8.28 21.93,6.46 Z m -2.34,11 a 3.75,3.75 0 0 1 -2.09,2.1 C 16.05,20.13 12.61,20 11.01,20 c -1.6,0 -5,0.13 -6.49,-0.44 A 3.75,3.75 0 0 1 2.43,17.46 C 1.86,16 2,12.6 2,11 2,9.4 1.87,6 2.44,4.52 A 3.69,3.69 0 0 1 4.53,2.42 C 6,1.85 9.41,2 11,2 c 1.59,0 5,-0.13 6.49,0.44 a 3.75,3.75 0 0 1 2.09,2.1 C 20.16,6 20,9.4 20,11 c 0,1.6 0.16,5 -0.41,6.48 z" />
    </g>
  </g>
</svg>
