<?xml version="1.0" encoding="UTF-8" standalone="no"?>
<!-- Created with Inkscape (http://www.inkscape.org/) -->

<svg
   width="182.74797mm"
   height="239.58551mm"
   viewBox="0 0 182.74797 239.58551"
   version="1.1"
   id="svg1"
   inkscape:export-filename="RJlogo.svg"
   inkscape:export-xdpi="85.521889"
   inkscape:export-ydpi="85.521889"
   inkscape:version="1.3 (0e150ed6c4, 2023-07-21)"
   sodipodi:docname="RJlogo-small-white.svg"
   xmlns:inkscape="http://www.inkscape.org/namespaces/inkscape"
   xmlns:sodipodi="http://sodipodi.sourceforge.net/DTD/sodipodi-0.dtd"
   xmlns="http://www.w3.org/2000/svg"
   xmlns:svg="http://www.w3.org/2000/svg">
  <sodipodi:namedview
     id="namedview1"
     pagecolor="#ffffff"
     bordercolor="#000000"
     borderopacity="0.25"
     inkscape:showpageshadow="2"
     inkscape:pageopacity="0.0"
     inkscape:pagecheckerboard="0"
     inkscape:deskcolor="#d1d1d1"
     inkscape:document-units="mm"
     showguides="true"
     inkscape:zoom="0.62805135"
     inkscape:cx="397.26051"
     inkscape:cy="518.26972"
     inkscape:window-width="1680"
     inkscape:window-height="961"
     inkscape:window-x="-9"
     inkscape:window-y="-9"
     inkscape:window-maximized="1"
     inkscape:current-layer="layer1" />
  <defs
     id="defs1" />
  <g
     inkscape:label="Layer 1"
     inkscape:groupmode="layer"
     id="layer1"
     transform="translate(-15.875,-34.395835)">
    <circle
       id="path2"
       style="fill:#ffffff;stroke:#000000;stroke-width:0.264583;fill-opacity:1"
       cx="61.085102"
       cy="60.24255"
       r="0.28057018" />
    <path
       style="fill:#ffffff;stroke-width:0.264583;fill-opacity:1"
       id="path6"
       d="m 53.983437,118.37469 c 0.38518,1.0255 0.910698,2.00877 1.155541,3.07651 0.410454,1.78997 0.662429,3.61962 0.799859,5.45089 0.517793,6.89973 0.160409,9.95224 -0.692808,17.01822 -0.905532,7.49922 -2.061155,13.84835 -3.312568,21.32592 -1.732965,7.88358 -2.950842,15.8685 -4.58176,23.77173 -0.839513,4.06819 -1.84132,8.10135 -2.719385,12.16139 -2.157603,9.97641 -2.814553,14.2216 -5.281655,24.05408 -0.884565,3.52537 -1.9187,7.01152 -2.87805,10.51728 -2.11705,7.20628 -2.741549,9.80468 -5.214964,16.5823 -0.695195,1.90497 -1.395584,3.81305 -2.248786,5.65269 -0.586044,1.2636 -1.004906,2.72579 -2.059223,3.63604 -0.470316,0.40605 -2.430703,-0.0576 -1.845076,-0.26525 4.417429,-1.56625 9.011122,-2.58203 13.516685,-3.87305 -0.02357,0.43316 0.245502,1.59644 -0.07071,1.29947 -0.888415,-0.83432 -1.346033,-2.04002 -1.882918,-3.13415 -2.613739,-5.32662 -2.908078,-7.22376 -4.660889,-13.29515 -4.426675,-15.33312 -2.656332,-8.28956 -5.889607,-25.63105 -0.490304,-5.27401 -1.155756,-10.53465 -1.470912,-15.82202 -0.498755,-8.36758 -0.535408,-23.79573 -0.344243,-32.17101 0.270186,-11.83732 0.607781,-18.87484 2.298618,-30.53854 0.672682,-4.64026 1.671299,-9.2274 2.506948,-13.8411 1.104543,-4.36086 1.980827,-8.78598 3.313626,-13.08258 2.404459,-7.75136 5.335362,-14.494724 9.397484,-21.481333 2.835479,-4.876858 6.67336,-10.227048 10.756773,-14.2012 1.778717,-1.731124 3.859061,-3.12252 5.788593,-4.683779 1.917883,-0.998683 3.668898,-2.42207 5.753651,-2.996049 13.010239,-3.582008 2.746425,-0.759243 6.254316,0.925134 2.258943,1.084676 4.838176,1.463334 7.012561,2.708881 6.226501,3.5667 8.042519,6.58804 12.641824,11.910422 1.553509,2.530063 3.336504,4.932826 4.660529,7.590184 4.240197,8.510194 5.848629,17.57287 5.290262,27.03102 -0.494271,8.37259 -1.691542,10.8418 -4.002397,18.88449 -1.424176,2.8905 -2.632311,5.89788 -4.272529,8.6715 -4.651499,7.86572 -11.155349,14.76948 -18.61194,20.0267 -6.517256,4.59495 -8.772003,5.15682 -15.990434,8.32433 -5.806261,1.37301 -9.548813,2.64262 -15.495919,2.649 -2.015235,0.002 -4.125401,0.0225 -6.004348,-0.706 -0.544301,-0.21104 1.659014,-0.5835 1.370156,-1.09081 -0.520155,-0.91352 -1.940931,-0.84104 -2.808314,-1.43495 -0.593736,-0.40653 -1.014998,-1.02027 -1.522495,-1.5304 -0.219739,-0.47673 -0.540343,-0.9189 -0.659215,-1.4302 -0.192129,-0.82639 0.251781,-2.50149 0.477063,-3.14998 0.529346,-1.52377 1.245063,-2.89399 2.301428,-4.1263 0.51685,-0.60293 1.159171,-1.08581 1.738754,-1.62872 0.277886,-2.71885 3.240191,0.65003 2.418313,0.90601 -1.979129,0.61642 -5.599557,-1.76555 -6.215026,0.21387 -0.585978,1.88459 3.760552,1.34427 5.379659,2.47278 5.376778,3.74757 10.345412,9.91986 14.599418,14.64263 5.674039,8.06669 8.797456,12.15469 13.81498,20.74937 2.096439,3.59107 4.019545,7.28237 5.904365,10.98889 1.817687,3.5745 3.604109,7.16958 5.200221,10.84836 3.396171,7.82763 4.113022,10.85565 6.532629,18.70804 1.389112,5.45908 2.865323,10.98385 3.160855,16.64191 0.04586,0.87797 -0.03885,1.75792 -0.05827,2.63688 0,0 16.151123,-3.52626 16.151123,-3.52626 v 0 c -3.907585,-5.93684 -7.589056,-12.02027 -11.176843,-18.15501 -3.979056,-6.907 -6.195907,-10.66639 -10.097603,-17.83907 -1.944757,-3.57514 -3.774832,-7.21207 -5.733111,-10.77982 -2.020422,-3.68096 -4.156877,-7.29716 -6.201984,-10.96446 -10.10448,-18.11943 -2.086224,-4.31968 -12.351057,-21.66293 -4.035885,-7.53372 -5.87095,-11.23426 -10.178356,-18.31414 -1.467747,-2.41248 -2.112873,-5.74199 -4.570352,-7.13307 -7.874272,-4.45732 -12.338153,-5.05451 -18.231442,-0.61438 -1.06739,0.8042 -1.793935,1.98142 -2.690903,2.97212 -1.699353,2.63307 -2.904074,4.23233 -4.079973,7.208 -1.782807,4.51149 -2.52708,9.88889 -0.760147,14.55606 0.619257,1.6357 1.838467,2.97591 2.757701,4.46387 1.396878,1.11678 2.636364,2.46564 4.190634,3.35035 1.654377,0.94169 3.443685,1.76987 5.324188,2.06561 3.888123,0.61146 7.856852,0.73942 11.791129,0.62603 2.199757,-0.0634 4.370369,-0.60055 6.500511,-1.15321 4.200977,-1.08994 11.191623,-4.01235 15.033805,-5.52988 2.895637,-1.4119 5.902645,-2.6152 8.686913,-4.2357 4.045818,-2.35476 12.441087,-8.62631 15.713308,-11.84967 4.54764,-4.47974 8.595717,-10.32391 11.517622,-15.97209 1.57417,-3.04294 2.71781,-6.28995 4.07672,-9.43491 1.09902,-3.40687 2.52517,-6.72506 3.29706,-10.2206 1.30228,-5.89743 1.56282,-14.61402 1.11744,-20.59468 -0.25893,-3.47699 -0.58878,-6.9806 -1.45286,-10.358445 -1.83801,-7.185183 -4.82171,-11.426015 -8.438101,-17.768098 -4.506881,-5.391981 -7.734043,-9.735021 -13.16709,-14.285 -2.435998,-2.040059 -4.769961,-4.510265 -7.792585,-5.4899 -6.769669,-2.194055 -14.745613,-2.37553 -21.166508,1.047808 -2.161227,1.152271 -3.74973,3.151836 -5.624594,4.727752 -4.567899,5.281964 -6.858984,7.335142 -10.162596,13.724972 -2.90586,5.620501 -5.241991,13.488302 -6.912702,19.460786 -3.261119,11.657915 -3.361878,13.331725 -5.821347,25.466555 -0.441379,4.66514 -0.962398,9.32344 -1.324137,13.99544 -0.599397,7.74145 -1.381315,22.94937 -1.555995,30.60601 -0.417572,18.3031 0.07195,13.89065 0.344464,32.18589 0.07889,5.29638 0.03024,10.5939 0.04536,15.89086 -0.269435,4.85003 -0.45427,9.70551 -0.808303,14.55011 -1.238822,16.95204 -1.230622,6.39052 -1.140979,20.42053 0.01833,2.86805 -0.07127,8.96308 0.747071,12.04468 0.608748,2.29234 1.677451,4.43708 2.516176,6.65561 5.274118,-0.9197 10.855667,-0.76052 15.822357,-2.75908 1.135623,-0.45696 0.151937,-2.44504 0.152828,-3.66915 0.0011,-1.45453 -0.132291,-2.90666 -0.146971,-4.36111 -0.07778,-7.7068 0.36807,-15.41413 1.369187,-23.05802 0.451612,-3.57111 0.809649,-7.15531 1.354836,-10.71334 1.478296,-9.64773 2.65674,-14.48142 4.762342,-24.0731 0.889928,-4.0539 1.717204,-8.1225 2.693188,-12.15656 1.907331,-7.88361 4.304033,-15.64399 6.053206,-23.56824 2.079289,-7.68088 3.635846,-13.49735 5.765541,-21.11315 0.85476,-3.05663 1.654516,-6.13008 2.601883,-9.15929 0.835591,-2.67181 1.820643,-5.2946 2.744888,-7.93705 2.279854,-6.51821 1.422133,-4.27582 3.620503,-9.53293 z" />
    <path
       style="fill:#ffffff;stroke-width:0.264583;fill-opacity:1"
       id="path7"
       d="m 134.83467,130.42755 c -3.92172,-4.19693 -7.35307,-8.79343 -10.38604,-13.66993 -1.40756,-2.26313 -2.69192,-4.60092 -3.99648,-6.92494 -3.96501,-7.0635 -4.03105,-7.38925 -7.68044,-14.610243 -3.33573,-7.724714 -2.86045,-6.235327 -5.54805,-13.919628 -1.77209,-5.0667 -2.55489,-7.270266 -3.68505,-12.41928 -0.93531,-4.261318 -0.9917,-5.647618 -1.46391,-9.822542 -0.28736,-3.367299 -0.34873,-6.754035 -0.0281,-10.120905 0.0699,-0.734523 0.15276,-1.469332 0.28725,-2.19482 0.0906,-0.488973 -0.0362,-1.179314 0.38672,-1.44092 0.2906,-0.179745 0.31352,0.607218 0.47027,0.910828 -2.59661,6.771994 -0.11247,4.084714 -9.758594,4.909867 -1.117809,0.09562 2.237034,-0.379828 3.354234,-0.277317 2.601481,0.238701 7.21537,1.918824 9.56962,2.549059 2.20632,0.590629 4.4409,1.070107 6.66134,1.605163 3.57856,0.973127 8.79879,2.430156 12.45203,3.281633 3.41456,0.795848 7.14127,1.611061 10.67419,1.690899 9.77038,0.220797 8.59451,0.203935 15.4633,-0.817012 3.50024,-0.958834 6.86728,-2.336906 9.90932,-4.331957 0.8234,-0.540004 1.58557,-1.168074 2.37321,-1.759021 1.9505,-1.463432 1.5412,-1.156999 3.27691,-2.586691 1.07954,-0.06904 1.1494,-2.014138 2.1627,-2.26087 0.20883,-0.05085 0.36731,0.672949 0.15776,0.625194 -5.88068,-1.340114 -11.47943,-4.323947 -17.5055,-4.578469 -1.33122,-0.05622 0.69148,2.575079 0.96202,3.879729 0.44833,2.162013 0.79575,4.34373 1.19362,6.515594 0.33589,2.721314 0.73956,5.435113 1.00766,8.163939 0.28556,2.906498 0.33504,5.833969 0.65284,8.737121 0.35467,3.24 0.91425,6.454282 1.3635,9.682524 4.73115,33.997055 -2.18917,-14.808427 3.08278,20.251525 0.51344,3.41453 0.91916,6.84439 1.37874,10.26659 0.9649,9.47821 1.12145,9.83191 1.61119,19.12832 0.14882,2.82489 0.17051,5.6557 0.32952,8.48004 0.15958,2.83451 0.42873,5.66183 0.62609,8.49396 0.57342,8.22868 0.62897,9.68198 1.10508,18.03972 0.0202,4.40669 0.13986,14.19637 -0.14011,18.59093 -0.18269,2.86756 -0.5706,5.71957 -0.95691,8.56686 -0.34898,2.57215 -0.92392,5.11108 -1.24828,7.68645 -2.57433,20.4402 1.33923,-4.13006 -2.32833,17.59352 -0.88118,3.02568 -1.59076,6.1067 -2.64355,9.07703 -2.7742,7.82713 -6.82945,15.1278 -12.23235,21.44812 -3.58159,4.18975 -4.67864,4.72637 -8.84453,7.96264 -4.76032,3.24806 -9.20851,5.36198 -15.05788,5.74826 -1.8402,0.12153 -3.71469,0.12672 -5.5288,-0.20502 -0.26001,-0.0476 0.39041,-0.65802 0.15474,-0.77772 -1.77778,-0.90292 -3.75696,-1.33727 -5.63544,-2.0059 -1.8071,-1.11675 -3.73831,-2.054 -5.42131,-3.35025 -6.332979,-4.87768 -11.276951,-12.59306 -12.399348,-20.57772 -0.301395,-2.14411 -0.165452,-4.32721 -0.248179,-6.49081 0.38196,-2.64499 0.517604,-5.33746 1.145881,-7.93499 1.787176,-7.38885 4.288941,-12.78657 8.071726,-19.42363 2.07152,-3.63457 4.23058,-7.23694 6.71459,-10.60308 6.0835,-8.24389 10.2633,-11.65715 17.59999,-18.69591 3.33985,-2.69598 6.5429,-5.57084 10.01956,-8.08793 7.06765,-5.11694 13.26382,-8.53913 21.11384,-12.2291 6.37717,-2.99765 12.8115,-5.51448 19.58042,-7.47053 2.83827,-0.82019 5.74737,-1.37175 8.62105,-2.05763 9.49607,-1.49819 4.94458,-0.93232 13.64456,-1.77538 0,0 -7.38325,-10.06296 -7.38325,-10.06296 v 0 c -7.67788,3.01627 -3.64104,1.3963 -12.10232,4.88034 -8.93814,3.96624 -17.88288,7.91654 -26.29332,12.94853 -3.32566,1.98974 -6.54458,4.15494 -9.751,6.33163 -10.46717,7.10567 -10.65641,7.55604 -20.7047,15.49812 -10.68867,10.7194 -7.88187,7.47468 -17.74872,19.11196 -2.87333,3.38889 -5.897727,6.66427 -8.516523,10.25348 -2.324581,3.18598 -4.29664,6.6185 -6.280687,10.02697 -1.883362,3.23551 -3.8247,6.45964 -5.315111,9.89391 -1.297998,2.9909 -2.01109,6.20295 -3.016634,9.30442 -0.144367,2.81984 -0.658016,5.64496 -0.433099,8.45951 0.616159,7.71045 4.662644,14.33548 9.576705,20.04683 1.690714,1.96502 3.475717,3.86093 5.410674,5.58597 1.933813,1.72404 4.109675,3.15567 6.164505,4.73349 2.24058,1.15499 4.28828,2.80728 6.72173,3.46493 4.13043,1.11625 8.43735,1.57803 12.71087,1.78668 2.22795,0.1088 4.45413,-0.39074 6.63865,-0.84185 3.96336,-0.81849 9.87929,-2.81313 13.37241,-4.84598 1.86434,-1.08495 3.42557,-2.62242 5.13835,-3.93363 1.41174,-1.61068 2.95176,-3.11738 4.23522,-4.83203 2.64825,-3.53796 5.48484,-8.80823 7.32814,-12.73715 3.97626,-8.47526 6.9693,-17.38687 9.51231,-26.38188 1.41653,-5.03515 3.84251,-12.85927 4.49863,-18.1744 0.32583,-2.63958 0.17502,-5.31657 0.21942,-7.9758 0.0489,-2.93071 0.004,-5.86259 0.0606,-8.79315 0.35326,-18.14227 0.35742,-0.88672 0.22834,-18.87637 0.0648,-8.2072 0.1947,-10.24777 -0.17909,-18.34288 -0.13347,-2.89044 -0.25085,-5.78547 -0.55881,-8.66255 -0.30563,-2.85528 -0.84051,-5.68139 -1.2803,-8.5191 -4.39671,-28.36973 1.56564,10.80306 -2.97094,-19.13065 -1.4615,-10.76986 -1.41032,-9.74517 -2.52453,-20.534734 -0.33572,-3.250986 -0.75803,-6.496561 -0.93739,-9.75991 -0.1726,-3.140313 -0.12613,-6.289387 -0.11759,-9.434431 0.008,-2.821847 -0.0735,-5.65228 0.16618,-8.463938 0.22189,-2.602828 0.81022,-5.161328 1.21533,-7.741992 0.64466,-1.938919 1.16912,-3.922037 1.93399,-5.816761 0.47849,-1.185331 2.82792,-2.656126 1.78438,-3.394358 -25.16411,-17.801833 -13.61432,-11.570666 -18.17465,-5.171374 -0.57162,0.69084 -1.08948,1.358064 -1.75531,1.970344 -2.03083,1.867501 -4.62931,2.990133 -7.25159,3.728993 -0.98099,0.244599 -1.96197,0.489198 -2.94295,0.733798 0.85433,0.181329 3.35975,0.186282 2.563,0.543988 -1.43026,0.642123 -3.11856,0.358955 -4.68555,0.408943 -5.83828,0.186243 -11.59827,-0.644115 -17.16058,-2.433828 -4.6457,-1.98225 -5.74977,-2.36809 -10.13299,-4.549439 -1.44698,-0.720106 -2.89009,-1.450911 -4.29692,-2.246606 -1.3518,-0.764572 -2.43481,-2.226784 -3.9743,-2.431547 -4.220727,-0.561391 -8.714055,-1.085146 -12.77206,0.204152 -2.116899,0.672574 -2.791185,3.455974 -4.186777,5.183963 -0.125272,1.106257 -0.373348,2.205447 -0.37582,3.318772 -7.93e-4,0.385643 0.842577,4.441737 0.869143,4.573013 0.764718,3.778962 1.500976,7.566869 2.517789,11.289009 0.498374,1.646576 0.948629,3.30849 1.49512,4.939728 0.980099,2.925525 3.276024,8.846722 4.367096,11.585199 0.882849,2.215862 1.742988,4.442066 2.702153,6.625977 2.067885,4.708342 4.505966,9.421719 6.806756,14.013251 1.21332,2.503028 2.42294,5.007858 3.63997,7.509088 1.18561,2.43666 2.43578,4.84262 3.56794,7.30457 2.05093,4.4599 4.02952,9.01783 5.24128,13.79664 0.43603,1.71957 0.67079,3.48825 0.85836,5.2523 0.10836,1.01903 0.018,2.04947 0.027,3.07421 z" />
  </g>
</svg>
